<svg xmlns="http://www.w3.org/2000/svg" xmlns:xlink="http://www.w3.org/1999/xlink" width="200" zoomAndPan="magnify" viewBox="0 0 150 149.999998" height="200" preserveAspectRatio="xMidYMid meet" version="1.0"><defs><clipPath id="3c156ad6a4"><path d="M 10.636719 100 L 139.628906 100 L 139.628906 147.167969 L 10.636719 147.167969 Z M 10.636719 100 " clip-rule="nonzero"/></clipPath><clipPath id="e6320d78a8"><path d="M 64 2.476562 L 78 2.476562 L 78 24 L 64 24 Z M 64 2.476562 " clip-rule="nonzero"/></clipPath></defs><g clip-path="url(#3c156ad6a4)"><path fill="#6ecc02" d="M 133.609375 100.179688 C 121.492188 118.777344 102.164062 132.695312 78.617188 137.433594 C 55.425781 142.101562 32.539062 136.96875 14.257812 124.917969 L 10.636719 131.792969 C 44.09375 153.929688 89.488281 152.488281 121.703125 125.359375 C 128.824219 119.363281 134.804688 112.523438 139.632812 105.117188 L 133.609375 100.179688 " fill-opacity="1" fill-rule="nonzero"/></g><path fill="#f0ffc0" d="M 126.507812 94.355469 C 115.707031 111.429688 98.203125 124.253906 76.816406 128.558594 C 55.789062 132.789062 35.003906 127.972656 18.523438 116.820312 L 14.261719 124.914062 C 32.542969 136.972656 55.527344 142.597656 78.71875 137.933594 C 102.265625 133.195312 121.492188 118.777344 133.609375 100.179688 L 126.507812 94.355469 " fill-opacity="1" fill-rule="nonzero"/><path fill="#ff5757" d="M 59.515625 40.566406 C 59.0625 40.660156 58.679688 40.921875 58.367188 41.226562 L 16.949219 119.8125 C 19.871094 121.847656 22.9375 123.683594 26.113281 125.3125 L 61.675781 41.164062 C 61.234375 40.84375 60.417969 40.386719 59.515625 40.566406 " fill-opacity="1" fill-rule="nonzero"/><path fill="#ff0000" d="M 62.019531 41.445312 C 62.019531 41.445312 61.890625 41.320312 61.675781 41.164062 L 26.113281 125.3125 C 41.4375 133.171875 59.433594 136.109375 77.605469 132.453125 C 99.910156 127.964844 118.109375 114.433594 129.125 96.46875 L 62.019531 41.445312 " fill-opacity="1" fill-rule="nonzero"/><path fill="#000000" d="M 79.289062 78.003906 C 78.242188 76.394531 73.859375 74.824219 73.859375 74.824219 C 73.859375 74.824219 73.488281 79.453125 74.527344 81.058594 C 75.566406 82.667969 77.476562 83.289062 78.789062 82.441406 C 80.105469 81.597656 80.328125 79.613281 79.289062 78.003906 " fill-opacity="1" fill-rule="nonzero"/><path fill="#000000" d="M 93.378906 90.765625 C 91.929688 89.429688 87.167969 88.976562 87.167969 88.976562 C 87.167969 88.976562 87.976562 93.679688 89.421875 95.011719 C 90.867188 96.351562 92.925781 96.484375 94.015625 95.308594 C 95.113281 94.136719 94.824219 92.101562 93.378906 90.765625 " fill-opacity="1" fill-rule="nonzero"/><path fill="#000000" d="M 59.15625 77.785156 C 59.15625 77.785156 55.730469 80.925781 55.398438 82.8125 C 55.066406 84.695312 56.042969 86.4375 57.582031 86.707031 C 59.125 86.976562 60.644531 85.667969 60.976562 83.785156 C 61.304688 81.902344 59.15625 77.785156 59.15625 77.785156 " fill-opacity="1" fill-rule="nonzero"/><path fill="#000000" d="M 70.71875 97.203125 C 70.71875 97.203125 68.640625 101.5 69.042969 103.425781 C 69.441406 105.347656 71.042969 106.640625 72.617188 106.316406 C 74.191406 105.996094 75.144531 104.171875 74.742188 102.25 C 74.339844 100.324219 70.71875 97.203125 70.71875 97.203125 " fill-opacity="1" fill-rule="nonzero"/><path fill="#000000" d="M 47.386719 100.019531 C 46.574219 101.808594 47.101562 103.796875 48.566406 104.453125 C 50.03125 105.113281 51.878906 104.195312 52.6875 102.402344 C 53.5 100.613281 52.414062 95.96875 52.414062 95.96875 C 52.414062 95.96875 48.199219 98.226562 47.386719 100.019531 " fill-opacity="1" fill-rule="nonzero"/><path fill="#ff0000" d="M 93.449219 28.988281 C 92.769531 28.582031 92.011719 28.300781 91.269531 28.164062 C 87.675781 27.515625 83.667969 29.714844 80.910156 31.804688 C 78.558594 33.582031 77.1875 35.171875 75.582031 37.492188 C 75.417969 37.726562 74.75 38.402344 75.351562 38.667969 C 75.707031 38.828125 76.050781 38.566406 76.847656 38.300781 C 79.339844 37.464844 82.089844 36.542969 85.136719 37.027344 C 87.785156 37.449219 91.519531 38.320312 93.984375 36.507812 C 95.507812 35.386719 96.242188 33.816406 95.855469 32.0625 C 95.5625 30.746094 94.617188 29.683594 93.449219 28.988281 " fill-opacity="1" fill-rule="nonzero"/><path fill="#ff5757" d="M 93.246094 34.429688 C 94.589844 33.441406 95.316406 32.105469 95.207031 30.605469 C 94.757812 29.953125 94.144531 29.402344 93.449219 28.988281 C 92.769531 28.582031 92.011719 28.300781 91.269531 28.164062 C 87.675781 27.515625 83.667969 29.714844 80.910156 31.804688 C 79.082031 33.183594 77.847656 34.457031 76.632812 36.046875 C 78.988281 35.265625 81.5625 34.496094 84.402344 34.949219 C 87.050781 35.371094 90.78125 36.242188 93.246094 34.429688 " fill-opacity="1" fill-rule="nonzero"/><path fill="#ff0000" d="M 48.28125 25.113281 C 48.226562 24.988281 48.167969 24.871094 48.113281 24.78125 C 47.199219 23.25 46.226562 20.726562 44.902344 18.628906 C 42.492188 14.792969 38.6875 10.007812 33.589844 12.402344 C 33.464844 12.460938 33.339844 12.519531 33.214844 12.585938 C 30.730469 13.910156 29.675781 17.164062 30.605469 19.789062 C 31.335938 21.847656 33.226562 23.023438 35.277344 23.683594 C 37.332031 24.347656 39.628906 24.992188 41.726562 25.589844 C 44.304688 26.324219 46.605469 28.140625 49.097656 28.761719 C 49.53125 28.867188 48.851562 26.324219 48.28125 25.113281 " fill-opacity="1" fill-rule="nonzero"/><path fill="#ff5757" d="M 32.601562 17.875 C 33.453125 19.414062 35.230469 20.296875 36.875 20.707031 C 38.636719 21.148438 40.378906 21.734375 42.109375 22.316406 C 44.230469 23.03125 46.082031 24.4375 48.160156 25.25 C 48.234375 25.28125 48.269531 25.226562 48.28125 25.113281 C 48.226562 24.988281 48.167969 24.871094 48.113281 24.78125 C 47.199219 23.25 46.226562 20.726562 44.902344 18.628906 C 42.492188 14.792969 38.6875 10.007812 33.589844 12.402344 C 32.175781 13.78125 31.628906 16.117188 32.601562 17.875 " fill-opacity="1" fill-rule="nonzero"/><g clip-path="url(#e6320d78a8)"><path fill="#ff0000" d="M 76.414062 4.136719 C 74.804688 2.5 72.257812 2.601562 70.347656 3.359375 C 68.300781 4.167969 66.714844 6.144531 65.757812 8.320312 C 64.773438 10.554688 64.035156 12.875 64.097656 15.394531 C 64.164062 17.964844 64.421875 20.917969 65.398438 23.253906 C 65.734375 22.859375 65.863281 22.339844 66.09375 21.871094 C 66.78125 20.476562 67.644531 19.335938 68.597656 18.269531 C 69.867188 16.839844 71.222656 15.527344 72.714844 14.390625 C 74.363281 13.128906 76.425781 12.246094 77.339844 10.105469 C 78.152344 8.195312 77.898438 5.78125 76.539062 4.269531 C 76.496094 4.222656 76.457031 4.179688 76.414062 4.136719 " fill-opacity="1" fill-rule="nonzero"/></g><path fill="#ff0000" d="M 28.152344 52.785156 C 31.214844 52.332031 32.601562 51.703125 35.523438 50.765625 C 37.324219 50.191406 40.21875 49.949219 40.355469 50.0625 C 37.195312 47.367188 35.113281 45.652344 32.257812 44.402344 C 28.644531 42.820312 24.074219 43.15625 21.222656 46.089844 C 19.988281 47.351562 19.597656 49.332031 20.765625 50.777344 C 22.613281 53.058594 25.570312 53.171875 28.152344 52.785156 " fill-opacity="1" fill-rule="nonzero"/><path fill="#ff5757" d="M 28.238281 48.246094 C 30.222656 48.140625 31.132812 47.890625 33.039062 47.550781 C 34.21875 47.339844 36.085938 47.332031 36.171875 47.390625 C 34.210938 45.992188 32.914062 45.097656 31.109375 44.402344 C 28.824219 43.515625 25.871094 43.511719 23.953125 44.804688 C 23.125 45.363281 22.816406 46.292969 23.53125 47.023438 C 24.660156 48.175781 26.5625 48.335938 28.238281 48.246094 " fill-opacity="1" fill-rule="nonzero"/><path fill="#ff5757" d="M 67.378906 14.378906 C 68.183594 13.230469 68.910156 12.265625 69.933594 11.429688 C 71.070312 10.5 72.480469 10.558594 73.484375 9.226562 C 74.378906 8.039062 74.351562 6.402344 73.71875 5.023438 C 73.699219 4.988281 73.679688 4.953125 73.660156 4.921875 C 73.222656 4.3125 72.738281 3.972656 72.183594 3.796875 C 71.472656 3.570312 70.710938 3.695312 70.023438 4.039062 C 68.832031 4.632812 67.851562 5.457031 66.949219 6.808594 C 65.921875 8.359375 65.328125 10.195312 65.023438 12.082031 C 64.6875 14.164062 64.683594 15.695312 65.097656 18.386719 C 65.304688 18.070312 66.78125 15.238281 67.378906 14.378906 " fill-opacity="1" fill-rule="nonzero"/></svg>